<svg xmlns="http://www.w3.org/2000/svg" xmlns:xlink="http://www.w3.org/1999/xlink" id="Layer_1" x="0px" y="0px" viewBox="0 0 65 65" style="enable-background:new 0 0 65 65;" xml:space="preserve">
<style type="text/css">
	.st0{display:none;fill:#19499C;}
	.st1{fill:#00AEEF;}
	.st2{fill:#17479E;}
</style>
<path class="st0" d="M43.2,25.4v-0.8V7.3L16.3-4.4l-7,3.1c-0.4,0.2-0.6,0.6-0.6,1s0.3,0.8,0.6,1l7,3.1v10.6l-20.6,7.7v9.5l25.6,11.5  l0,0l0.6,0.3l0.6-0.3l0,0l20.6-8.3V26v-0.4C43.2,25.7,43.2,25.4,43.2,25.4z M10.3-0.3l6-2.7L41.2,7.8l-5.5,2.3c-0.5,0.2-1,0.2-1.5,0  L10.3-0.3z M17.6,23.2v-7.4l22.8,9.8l-8.9,3.7v-0.1L17.6,23.2z M16.4,15.7v7.8l-8.8,3.3L-2,22.6L16.4,15.7z M21.4,41.7L-3,30.8v-7.3  l24.3,10.7v7.5H21.4z M22,33.1L9.2,27.5l8.2-3L30,29.8L22,33.1z M42,34l-19.4,7.8v-7.5l19.4-8V34z M42,24.8L17.6,14.4V4.3l16.1,7  c0.8,0.3,1.7,0.4,2.5,0L42,8.9V24.8z"></path>
<g>
	<polygon class="st1" points="126.08,45.39 126.08,27.59 130.58,23.09 121.68,23.09 117.18,27.59 117.18,45.39 121.68,40.89  "></polygon>
	<path class="st2" d="M100.48,43.29v-19.1h15.6v16.7c0,0.5,0.3,0.9,0.7,1c0.4,0.2,0.9,0.1,1.2-0.2l3.7-3.7l3.7,3.7   c0.2,0.2,0.5,0.3,0.8,0.3c0.1,0,0.3,0,0.4-0.1c0.4-0.2,0.7-0.6,0.7-1v-16.7h20.1v19.1h2.2v-19.8l11.1-11.1v30.9h2.2v-31.3   c0-1.8-1.5-3.4-3.4-3.4h-45c-1.5,0-2.9,0.6-3.9,1.6l-12,12.1c-0.1,0.1-0.2,0.2-0.2,0.4c-0.1,0.1-0.1,0.3-0.1,0.4v20.2H100.48z    M124.98,38.19l-2.6-2.6c-0.2-0.2-0.5-0.3-0.8-0.3c-0.3,0-0.6,0.1-0.8,0.3l-2.6,2.6v-14l0,0h6.8V38.19z M125.68,21.99h-5.8l2.2-2.2   h5.8L125.68,21.99z M112.28,11.79c0.6-0.6,1.5-1,2.4-1h44.5l-11.2,11.2h-19.2l2.6-2.6c0.3-0.3,0.4-0.8,0.2-1.2   c-0.2-0.4-0.6-0.7-1-0.7h-8.9c-0.3,0-0.6,0.1-0.8,0.3l-4.1,4.1h-14.7L112.28,11.79z"></path>
	<g>
		<path class="st2" d="M160.68,40.59v16.6c0,0.9-0.4,1.7-1,2.4l-10.1,10v-29h-2.2v30.7h-45.8c-0.6,0-1.1-0.5-1.1-1.1v-29.6h-2.2    v29.5c0,1.8,1.5,3.4,3.4,3.4h46.8c0.1,0,0.3,0,0.4-0.1c0.1-0.1,0.3-0.1,0.4-0.2l12.1-12.1c1.1-1.1,1.6-2.5,1.6-3.9v-16.6H160.68z"></path>
	</g>
	<g>
		<path class="st2" d="M103.78,63.39h8.9c0.6,0,1.1-0.5,1.1-1.1s-0.5-1.1-1.1-1.1h-8.9c-0.6,0-1.1,0.5-1.1,1.1    S103.18,63.39,103.78,63.39z"></path>
		<path class="st2" d="M117.18,65.69h-13.4c-0.6,0-1.1,0.5-1.1,1.1s0.5,1.1,1.1,1.1h13.4c0.6,0,1.1-0.5,1.1-1.1    C118.28,66.19,117.78,65.69,117.18,65.69z"></path>
		<path class="st2" d="M143.98,56.69c-0.6,0-1.1,0.5-1.1,1.1v4.5c0,1.1-0.3,2-0.9,2.5c-0.9,0.9-2.4,0.9-2.4,0.9    c-0.6,0-1.1,0.4-1.1,1.1c0,0.6,0.5,1.1,1.1,1.1c0,0,0,0,0.1,0c0.4,0,2.5,0,4-1.5c1.1-1,1.6-2.4,1.6-4.1v-4.5    C145.08,57.19,144.58,56.69,143.98,56.69z"></path>
		<path class="st2" d="M107.48,20.49c0.2,0.2,0.5,0.3,0.8,0.3c0.3,0,0.6-0.1,0.8-0.3l4.5-4.5c0.4-0.4,0.4-1.1,0-1.6    c-0.4-0.4-1.1-0.4-1.6,0l-4.4,4.5C107.08,19.39,107.08,20.09,107.48,20.49z"></path>
	</g>
</g>
<g>
	<path class="st1" d="M32.72,54.08c-0.26,0-0.52,0.11-0.71,0.29c-0.19,0.19-0.29,0.44-0.29,0.71c0,0.26,0.11,0.52,0.29,0.7   c0.19,0.19,0.44,0.29,0.71,0.29c0.26,0,0.52-0.11,0.71-0.29c0.19-0.19,0.29-0.44,0.29-0.7c0-0.26-0.11-0.52-0.29-0.71   C33.24,54.19,32.99,54.08,32.72,54.08z"></path>
	<path class="st2" d="M60.56,16.72c-0.03-0.16-0.09-0.32-0.21-0.45L49.49,3.63c-0.31-0.36-0.83-0.45-1.24-0.22l-4.47,2.52   l-4.72-2.09l3.59-1.98c0.4-0.22,0.6-0.69,0.48-1.14C43,0.29,42.59-0.02,42.13,0l-8.09,0.25c-0.15,0-0.31,0.05-0.44,0.12L4.78,15.92   c-0.1,0.05-0.19,0.12-0.26,0.21c-0.22,0.2-0.34,0.5-0.32,0.81c0.01,0.09,0.04,0.18,0.07,0.26c-0.01,0.05-0.02,0.1-0.02,0.16   l0,31.48c0,0.36,0.19,0.69,0.51,0.87l26.92,15.17c0.15,0.09,0.32,0.13,0.49,0.13c0.17,0,0.34-0.04,0.5-0.13l27.65-15.94   c0.31-0.18,0.5-0.51,0.5-0.86v-30.7C60.81,17.12,60.71,16.9,60.56,16.72z M48.51,5.55l9.88,11.49L33.69,31.3L23.02,19.95   L48.51,5.55z M37.46,5.32l4.15,1.84l-6.3,3.56V5.9l1.73-0.96C37.15,5.1,37.28,5.24,37.46,5.32z M34.34,2.24l3.72-0.12l-23.61,13   L9.76,15.5L34.34,2.24z M14.81,17.09c0.14-0.01,0.28-0.05,0.4-0.12L33.32,7v4.2c0,0.2,0.08,0.38,0.18,0.54l-12.56,7.09   c-0.27,0.15-0.45,0.41-0.49,0.72c-0.05,0.3,0.05,0.61,0.26,0.83l8.99,9.57L7.8,17.65L14.81,17.09z M58.82,47.49l-25.1,14.47v-3.95   c0-0.55-0.45-1-1-1c-0.55,0-1,0.45-1,1v4.61L6.24,48.25l0-29.2l25.49,14.33v18.85c0,0.55,0.45,1,1,1c0.55,0,1-0.45,1-1V33.59   l25.1-14.5V47.49z"></path>
</g>
</svg>