<?xml version="1.0" encoding="iso-8859-1"?>
<!-- Generator: Adobe Illustrator 22.0.1, SVG Export Plug-In . SVG Version: 6.00 Build 0)  -->
<svg version="1.1" id="Layer_1" xmlns="http://www.w3.org/2000/svg" xmlns:xlink="http://www.w3.org/1999/xlink" x="0px" y="0px"
	 viewBox="0 0 727.577 623.622" style="enable-background:new 0 0 727.577 623.622;" xml:space="preserve">
<g>
	
		<line style="fill:none;stroke:#000000;stroke-width:4;stroke-linecap:round;stroke-linejoin:round;stroke-miterlimit:10;" x1="541.769" y1="280.272" x2="594.492" y2="166.141"/>
	
		<polyline style="fill:none;stroke:#000000;stroke-width:4;stroke-linecap:round;stroke-linejoin:round;stroke-miterlimit:10;" points="
		104.484,14.173 103.608,17.683 15.488,371.371 	"/>
	
		<polyline style="fill:none;stroke:#000000;stroke-width:4;stroke-linecap:round;stroke-linejoin:round;stroke-miterlimit:10;" points="
		155.55,339.184 439.551,268.926 440.847,268.605 	"/>
	
		<line style="fill:none;stroke:#000000;stroke-width:4;stroke-linecap:round;stroke-linejoin:round;stroke-miterlimit:10;" x1="541.554" y1="27.234" x2="540.293" y2="27.194"/>
	
		<line style="fill:none;stroke:#000000;stroke-width:4;stroke-linecap:round;stroke-linejoin:round;stroke-miterlimit:10;" x1="14.835" y1="374" x2="15.489" y2="371.376"/>
	
		<polyline style="fill:none;stroke:#000000;stroke-width:4;stroke-linecap:round;stroke-linejoin:round;stroke-miterlimit:10;" points="
		104.484,14.173 230.861,77.409 126.998,438.429 	"/>
	
		<polyline style="fill:none;stroke:#000000;stroke-width:4;stroke-linecap:round;stroke-linejoin:round;stroke-miterlimit:10;" points="
		639.793,67.208 640.124,67.343 230.861,77.409 	"/>
	
		<polyline style="fill:none;stroke:#000000;stroke-width:4;stroke-linecap:round;stroke-linejoin:round;stroke-miterlimit:10;" points="
		105.788,14.212 107.543,14.267 540.294,27.199 	"/>
	
		<polyline style="fill:none;stroke:#000000;stroke-width:4;stroke-linecap:round;stroke-linejoin:round;stroke-miterlimit:10;" points="
		501.376,123.533 441.616,266.758 440.843,268.61 	"/>
	
		<line style="fill:none;stroke:#000000;stroke-width:4;stroke-linecap:round;stroke-linejoin:round;stroke-miterlimit:10;" x1="639.793" y1="67.208" x2="541.554" y2="27.238"/>
	
		<polyline style="fill:none;stroke:#000000;stroke-width:4;stroke-linecap:round;stroke-linejoin:round;stroke-miterlimit:10;" points="
		523.499,70.506 501.478,123.277 594.562,165.993 640.129,67.338 	"/>
	
		<polyline style="fill:none;stroke:#000000;stroke-width:4;stroke-linecap:round;stroke-linejoin:round;stroke-miterlimit:10;" points="
		14.892,373.982 14.834,373.995 15.042,377.032 23.686,502.587 23.705,502.877 	"/>
	
		<line style="fill:none;stroke:#000000;stroke-width:4;stroke-linecap:round;stroke-linejoin:round;stroke-miterlimit:10;" x1="248.273" y1="426.851" x2="438.419" y2="360.229"/>
	
		<polyline style="fill:none;stroke:#000000;stroke-width:4;stroke-linecap:round;stroke-linejoin:round;stroke-miterlimit:10;" points="
		712.743,300.036 637.498,291.335 501.818,275.654 440.847,268.605 440.193,320.371 	"/>
	
		<polyline style="fill:none;stroke:#000000;stroke-width:4;stroke-linecap:round;stroke-linejoin:round;stroke-miterlimit:10;" points="
		439.721,357.614 439.717,357.763 439.711,358.239 439.707,358.695 439.705,358.953 439.7,359.335 439.695,359.781 	"/>
	
		<line style="fill:none;stroke:#000000;stroke-width:4;stroke-linecap:round;stroke-linejoin:round;stroke-miterlimit:10;" x1="440.186" y1="320.634" x2="439.716" y2="357.615"/>
	
		<polyline style="fill:none;stroke:#000000;stroke-width:4;stroke-linecap:round;stroke-linejoin:round;stroke-miterlimit:10;" points="
		348.047,609.449 23.882,505.478 23.84,504.84 23.801,504.29 23.774,503.922 23.73,503.27 23.705,502.877 	"/>
	
		<polyline style="fill:none;stroke:#000000;stroke-width:4;stroke-linecap:round;stroke-linejoin:round;stroke-miterlimit:10;" points="
		137.501,401.921 347.229,449.659 348.052,609.448 	"/>
	
		<line style="fill:none;stroke:#000000;stroke-width:4;stroke-linecap:round;stroke-linejoin:round;stroke-miterlimit:10;" x1="712.743" y1="300.036" x2="706.218" y2="401.749"/>
	
		<polyline style="fill:none;stroke:#000000;stroke-width:4;stroke-linecap:round;stroke-linejoin:round;stroke-miterlimit:10;" points="
		706.103,403.501 706.07,404.05 705.953,404.115 	"/>
	
		<line style="fill:none;stroke:#000000;stroke-width:4;stroke-linecap:round;stroke-linejoin:round;stroke-miterlimit:10;" x1="350.591" y1="607.991" x2="348.052" y2="609.448"/>
	
		<line style="fill:none;stroke:#000000;stroke-width:4;stroke-linecap:round;stroke-linejoin:round;stroke-miterlimit:10;" x1="347.228" y1="449.654" x2="712.743" y2="300.036"/>
	
		<polyline style="fill:none;stroke:#000000;stroke-width:4;stroke-linecap:round;stroke-linejoin:round;stroke-miterlimit:10;" points="
		350.591,607.991 705.053,404.633 705.958,404.114 	"/>
	
		<line style="fill:none;stroke:#000000;stroke-width:4;stroke-linecap:round;stroke-linejoin:round;stroke-miterlimit:10;" x1="706.07" y1="404.05" x2="705.604" y2="403.972"/>
	
		<polyline style="fill:none;stroke:#000000;stroke-width:4;stroke-linecap:round;stroke-linejoin:round;stroke-miterlimit:10;" points="
		530.089,374.802 441.654,360.106 439.695,359.781 438.419,360.228 	"/>
	
		<polyline style="fill:none;stroke:#000000;stroke-width:4;stroke-linecap:round;stroke-linejoin:round;stroke-miterlimit:10;" points="
		706.103,403.501 706.127,403.107 706.147,402.818 706.178,402.294 706.213,401.755 	"/>
	
		<line style="fill:none;stroke:#000000;stroke-width:4;stroke-linecap:round;stroke-linejoin:round;stroke-miterlimit:10;" x1="14.835" y1="374" x2="126.998" y2="438.429"/>
	
		<line style="fill:none;stroke:#000000;stroke-width:4;stroke-linecap:round;stroke-linejoin:round;stroke-miterlimit:10;" x1="536.369" y1="371.205" x2="439.695" y2="355.103"/>
	
		<polyline style="fill:none;stroke:#000000;stroke-width:4;stroke-linecap:round;stroke-linejoin:round;stroke-miterlimit:10;" points="
		440.847,273.248 546.492,285.063 545.763,368.387 	"/>
	
		<polyline style="fill:none;stroke:#000000;stroke-width:4;stroke-linecap:round;stroke-linejoin:round;stroke-miterlimit:10;" points="
		705.953,303.681 599.804,291.405 599.318,346.464 	"/>
</g>
</svg>
